<svg width="32.000000" height="32.000000" viewBox="0 0 32 32" fill="none" xmlns="http://www.w3.org/2000/svg" xmlns:xlink="http://www.w3.org/1999/xlink">
	<desc>
			Created with Pixso.
	</desc>
	<defs>
		<clipPath id="clip0_370">
			<rect id="Frame 427320436" width="20.000000" height="20.000000" transform="translate(1.857910 16.000000) rotate(-45.000000)" fill="white" fill-opacity="0"/>
		</clipPath>
		<linearGradient x1="0.000000" y1="16.000000" x2="32.000000" y2="16.000000" id="paint_linear_0_369_0" gradientUnits="userSpaceOnUse">
			<stop stop-color="#8568FE"/>
			<stop offset="1.000000" stop-color="#2C80F8"/>
		</linearGradient>
	</defs>
	<rect id="Frame 427320418" rx="16.000000" width="32.000000" height="32.000000" fill="url(#paint_linear_0_369_0)" fill-opacity="1.000000"/>
	<rect id="Frame 427320436" width="20.000000" height="20.000000" transform="translate(1.857910 16.000000) rotate(-45.000000)" fill="#FFEAEA" fill-opacity="0"/>
	<g clip-path="url(#clip0_370)">
		<path id="Vector 92" d="M7.19 15.76L11.71 18.13L17.12 14.52L13.81 20.23L16.15 24.7C16.51 25.37 17.5 25.28 17.72 24.55L21.78 10.95C21.97 10.29 21.35 9.69 20.7 9.89L7.32 14.2C6.6 14.43 6.52 15.41 7.19 15.76Z" fill="#FFFFFF" fill-opacity="1.000000" fill-rule="nonzero"/>
		<path id="Vector 92" d="M7.55 15.95C6.75 15.53 6.85 14.35 7.71 14.07L23.76 8.91C24.55 8.66 25.29 9.39 25.05 10.17L20.19 26.49C19.93 27.37 18.73 27.49 18.3 26.67L15.5 21.32L19.47 14.46L12.97 18.79L7.55 15.95Z" stroke="#000000" stroke-opacity="0" stroke-width="0.851064"/>
	</g>
</svg>
